Coordinates
version=1
nRows=60
nColumns=12
inDegrees=yes

Units are S.I. units (second, meters, Newtons, ...)
Angles are in degrees

endheader
time	SC_y	SC_z	SC_x	AC_y	AC_z	AC_x	GH_y	GH_z	GH_yy	EL_x	PS_y
       0.0              -21.57          1.322          81.74           47.7           2.93         -4.487         -27.11          32.63         -134.0          110.1          68.02
   0.03241              -21.58          1.322          81.74           47.7          2.931         -4.486         -27.09          32.64         -134.0          110.1          68.02
   0.06481              -21.58          1.323          81.74           47.7          2.931         -4.485         -27.06          32.65         -133.9          110.1          68.02
   0.09722              -21.59          1.323          81.74           47.7          2.931         -4.484         -27.03          32.65         -133.9          110.1          68.03
    0.1296              -21.59          1.323          81.74           47.7          2.931         -4.483          -27.0          32.66         -133.9          110.1          68.03
     0.162               -21.6          1.324          81.74           47.7          2.932         -4.483         -26.96          32.67         -133.8          110.1          68.03
    0.1944              -21.61          1.324          81.74           47.7          2.932         -4.482         -26.93          32.67         -133.8          110.1          68.03
    0.2268              -21.61          1.325          81.74           47.7          2.933         -4.481         -26.89          32.68         -133.8          110.1          68.03
    0.2593              -21.62          1.325          81.74           47.7          2.933         -4.479         -26.85          32.69         -133.7          110.1          68.03
    0.2917              -21.63          1.326          81.74           47.7          2.933         -4.478          -26.8           32.7         -133.7          110.1          68.03
    0.3241              -21.64          1.326          81.74           47.7          2.934         -4.477         -26.75          32.71         -133.6          110.0          68.03
    0.3565              -21.65          1.327          81.73           47.7          2.934         -4.476          -26.7          32.72         -133.5          110.0          68.04
    0.3889              -21.66          1.327          81.73           47.7          2.935         -4.474         -26.65          32.73         -133.5          110.0          68.04
    0.4213              -21.67          1.328          81.73           47.7          2.936         -4.472         -26.59          32.74         -133.4          110.0          68.04
    0.4537              -21.68          1.329          81.73           47.7          2.936         -4.471         -26.52          32.76         -133.3          110.0          68.04
    0.4861              -21.69           1.33          81.73           47.7          2.937         -4.469         -26.45          32.77         -133.3          110.0          68.04
    0.5185               -21.7          1.331          81.73           47.7          2.938         -4.467         -26.37          32.79         -133.2          110.0          68.05
    0.5509              -21.72          1.332          81.73           47.7          2.939         -4.465         -26.29          32.81         -133.1          110.0          68.05
    0.5833              -21.73          1.333          81.72           47.7           2.94         -4.462          -26.2          32.83         -133.0          109.9          68.05
    0.6157              -21.75          1.334          81.72           47.7          2.941          -4.46          -26.1          32.85         -132.9          109.9          68.05
    0.6481              -21.77          1.335          81.72           47.7          2.942         -4.457         -25.99          32.87         -132.7          109.9          68.06
    0.6805              -21.79          1.337          81.72           47.7          2.943         -4.453         -25.87          32.89         -132.6          109.9          68.06
    0.7129              -21.81          1.338          81.71           47.7          2.944          -4.45         -25.74          32.92         -132.4          109.9          68.07
    0.7454              -21.84           1.34          81.71           47.7          2.946         -4.446         -25.59          32.95         -132.3          109.8          68.07
    0.7778              -21.87          1.342          81.71           47.7          2.948         -4.442         -25.42          32.99         -132.1          109.8          68.08
    0.8102               -21.9          1.344           81.7           47.7           2.95         -4.437         -25.24          33.03         -131.9          109.8          68.08
    0.8426              -21.93          1.346           81.7           47.7          2.952         -4.431         -25.04          33.07         -131.7          109.7          68.09
     0.875              -21.97          1.349          81.69           47.7          2.954         -4.425          -24.8          33.12         -131.4          109.7          68.09
    0.9074              -22.02          1.352          81.69           47.7          2.957         -4.418         -24.54          33.17         -131.1          109.6           68.1
    0.9398              -22.07          1.356          81.68           47.7           2.96          -4.41         -24.25          33.23         -130.8          109.6          68.11
    0.9722              -22.13           1.36          81.68           47.7          2.963         -4.401         -23.91           33.3         -130.4          109.5          68.12
     1.005              -22.19          1.364          81.67           47.7          2.967         -4.391         -23.52          33.39         -129.9          109.4          68.13
     1.037              -22.27           1.37          81.66          47.71          2.972         -4.379         -23.07          33.48         -129.4          109.3          68.15
     1.069              -22.36          1.376          81.65          47.71          2.977         -4.365         -22.55          33.59         -128.8          109.2          68.16
     1.102              -22.46          1.383          81.64          47.71          2.984         -4.349         -21.94          33.72         -128.1          109.1          68.18
     1.134              -22.59          1.391          81.62          47.71          2.991          -4.33         -21.23          33.87         -127.3          109.0          68.21
     1.167              -22.73          1.401           81.6          47.71            3.0         -4.307         -20.37          34.04         -126.4          108.8          68.23
     1.199              -22.91          1.413          81.58          47.71           3.01          -4.28         -19.35          34.26         -125.2          108.6          68.26
     1.231              -23.12          1.428          81.56          47.72          3.023         -4.247         -18.11          34.52         -123.8          108.4           68.3
     1.264              -23.38          1.446          81.52          47.72          3.039         -4.206          -16.6          34.83         -122.1          108.1          68.35
     1.296               -23.7          1.468          81.49          47.72          3.058         -4.157         -14.74          35.22         -120.0          107.7          68.41
     1.329               -24.1          1.495          81.44          47.73          3.082         -4.095         -12.41          35.71         -117.3          107.3          68.48
     1.361              -24.61           1.53          81.38          47.73          3.112         -4.016         -9.482          36.32         -114.0          106.7          68.57
     1.393              -25.25          1.573           81.3          47.74          3.151         -3.917         -5.758           37.1         -109.8          106.0          68.69
     1.426              -26.07           1.63           81.2          47.75            3.2          -3.79        -0.9904           38.1         -104.4          105.1          68.84
     1.458              -27.12          1.702          81.07          47.77          3.263         -3.627          5.127          39.38         -97.42          103.9          69.03
     1.491              -28.47          1.794          80.91          47.78          3.344         -3.418          12.94          41.02         -88.55          102.4          69.27
     1.523              -30.16          1.909           80.7           47.8          3.446         -3.156          22.77          43.07          -77.4          100.6          69.58
     1.556              -32.22           2.05          80.46          47.83          3.569         -2.837          34.74          45.58         -63.81          98.27          69.95
     1.588               -34.6          2.214          80.17          47.86          3.713         -2.467          48.62          48.49         -48.06          95.61          70.38
      1.62              -37.19          2.391          79.85          47.89          3.868         -2.066          63.65          51.63          -31.0          92.73          70.85
     1.653              -39.77          2.568          79.54          47.92          4.023         -1.666          78.68          54.78         -13.95          89.86          71.32
     1.685              -42.16          2.731          79.25          47.95          4.167         -1.296          92.56          57.68          1.806           87.2          71.75
     1.718              -44.22          2.872           79.0          47.98           4.29        -0.9762          104.5          60.19          15.39           84.9          72.12
      1.75              -45.91          2.988           78.8           48.0          4.392        -0.7142          114.4          62.24          26.55          83.02          72.43
     1.782              -47.26           3.08          78.64          48.02          4.473        -0.5059          122.2          63.88          35.42          81.53          72.67
     1.815              -48.31          3.152          78.51          48.03          4.536        -0.3427          128.3          65.16          42.36          80.35          72.86
     1.847              -49.13          3.208          78.41          48.04          4.585        -0.2156          133.1          66.16          47.77          79.44          73.01
      1.88              -49.77          3.252          78.33          48.05          4.624        -0.1163          136.8          66.94           52.0          78.73          73.12
     1.912              -50.27          3.286          78.27          48.05          4.654       -0.03817          139.7          67.55          55.32          78.17          73.22
